<?xml version="1.0" standalone="no"?>
<!DOCTYPE svg PUBLIC "-//W3C//DTD SVG 20010904//EN"
 "http://www.w3.org/TR/2001/REC-SVG-20010904/DTD/svg10.dtd">
<svg version="1.0" xmlns="http://www.w3.org/2000/svg"
 width="25px" height="25px" viewBox="0 0 500.000000 500.000000"
 preserveAspectRatio="xMidYMid meet">

<g transform="translate(0.000000,500.000000) scale(0.100000,-0.100000)"
fill="#000000" stroke="none">
<path d="M2890 3837 c-36 -28 -78 -96 -90 -145 -17 -71 -8 -126 36 -225 20
-45 44 -113 53 -152 l18 -70 27 44 c67 105 72 203 21 370 -19 62 -35 128 -35
147 0 38 -9 47 -30 31z"/>
<path d="M2634 3756 c-169 -93 -340 -238 -442 -375 -119 -160 -166 -305 -165
-511 1 -75 7 -155 17 -199 9 -41 14 -76 12 -79 -2 -2 -18 16 -34 40 -17 24
-58 70 -92 103 -81 79 -104 123 -104 203 -1 62 -1 63 -18 40 -10 -13 -21 -27
-26 -33 -4 -5 -31 -47 -60 -92 -177 -278 -261 -572 -232 -809 54 -431 382
-788 805 -875 108 -22 286 -24 395 -5 387 70 698 360 796 741 62 246 26 504
-112 780 -40 79 -150 259 -179 291 -5 6 -32 39 -60 72 -27 34 -51 59 -53 57
-2 -2 1 -49 7 -104 16 -130 3 -246 -38 -356 -18 -47 -45 -95 -53 -95 -10 0
-10 11 3 109 13 94 -1 215 -32 289 -23 53 -81 139 -168 247 -78 98 -117 172
-132 253 -14 71 -6 179 20 272 11 38 17 70 13 70 -4 0 -34 -16 -68 -34z m-670
-1285 c12 -10 16 -31 16 -92 0 -71 -2 -79 -19 -79 -10 0 -25 9 -32 19 -8 11
-30 23 -49 26 l-35 6 -22 -65 c-17 -47 -23 -88 -23 -150 l0 -85 54 6 c68 7 96
0 137 -34 30 -25 39 -28 119 -28 88 0 94 -2 160 -55 14 -11 39 -23 57 -26 26
-5 34 -2 49 21 15 23 16 34 6 87 -6 33 -19 66 -28 72 -18 14 -36 93 -23 102 5
3 9 34 9 68 0 49 5 69 21 90 31 39 71 56 134 56 98 0 137 -36 151 -138 3 -29
12 -53 20 -56 8 -3 14 -14 14 -25 0 -29 -30 -101 -42 -101 -17 0 -1 -102 20
-130 26 -34 53 -36 99 -7 54 34 108 50 156 45 35 -4 50 1 91 29 26 18 60 34
75 35 42 2 85 -3 103 -13 12 -6 25 -6 37 1 20 10 19 11 -5 58 -26 51 -47 144
-43 195 4 65 0 77 -24 77 -13 0 -32 -9 -41 -19 -10 -10 -32 -22 -51 -25 -18
-4 -35 -12 -37 -18 -2 -6 -19 -11 -38 -10 -45 1 -63 25 -56 77 9 70 73 105
192 105 33 0 68 -6 77 -12 18 -14 51 -58 147 -201 96 -142 126 -256 78 -295
-11 -9 -58 -54 -104 -100 -90 -90 -154 -126 -244 -138 -57 -8 -69 -20 -114
-118 -14 -33 -54 -97 -87 -144 -33 -47 -68 -100 -77 -118 l-16 -34 -307 0
-307 0 -7 32 c-4 17 -23 61 -42 97 -35 69 -63 157 -63 203 0 15 -10 39 -23 54
-20 22 -34 27 -97 34 -96 9 -142 33 -269 138 l-101 84 0 61 c0 68 25 126 109
257 22 36 52 88 66 117 34 73 55 85 141 81 41 -2 78 -9 88 -17z"/>
<path d="M2058 3639 c-27 -59 -49 -87 -97 -129 -99 -86 -129 -154 -110 -254 9
-50 47 -136 60 -136 9 0 19 26 19 53 1 41 47 136 103 209 30 40 62 95 71 122
19 58 20 139 3 180 l-13 30 -36 -75z"/>
<path d="M665 686 c-5 -2 -22 -7 -37 -10 -14 -3 -40 -18 -57 -32 -26 -22 -31
-33 -31 -69 0 -71 39 -94 210 -125 78 -14 102 -26 98 -48 -6 -29 -48 -43 -121
-40 -62 3 -71 7 -98 36 -29 31 -59 39 -92 26 -22 -8 -3 -57 34 -89 39 -32 89
-45 179 -45 134 1 206 56 181 141 -14 47 -48 64 -183 89 -57 11 -104 20 -105
20 -1 0 -7 9 -13 19 -18 35 12 51 92 51 65 0 72 -2 98 -30 21 -23 37 -30 64
-30 31 0 36 3 36 24 0 30 -33 72 -72 92 -28 15 -160 29 -183 20z"/>
<path d="M1555 681 c-97 -25 -138 -75 -143 -173 -5 -84 1 -108 35 -149 40 -47
95 -69 178 -69 143 0 215 66 215 197 0 120 -68 189 -191 198 -35 2 -77 1 -94
-4z m161 -105 c31 -31 34 -40 34 -91 0 -50 -3 -60 -30 -85 -56 -52 -156 -48
-200 7 -20 25 -27 92 -14 138 10 37 63 65 122 65 48 0 58 -4 88 -34z"/>
<path d="M2896 679 c-48 -12 -101 -50 -120 -87 -35 -68 -28 -173 17 -236 27
-39 91 -66 155 -66 68 0 119 24 145 68 l21 35 16 -49 c12 -36 22 -49 36 -49
18 0 19 8 19 110 l0 110 -35 3 c-19 2 -68 1 -108 -3 -72 -7 -73 -7 -70 -33 3
-25 7 -27 61 -30 65 -3 73 -18 31 -57 -34 -32 -99 -41 -147 -21 -92 38 -103
177 -17 221 59 30 155 14 183 -32 5 -8 27 -13 52 -13 37 0 45 3 45 19 0 25
-33 65 -73 90 -40 24 -152 35 -211 20z"/>
<path d="M1002 488 l3 -193 38 -3 c33 -3 37 -1 38 20 1 13 0 27 -1 33 -1 5 1
29 5 52 l6 43 95 0 c108 0 145 13 169 60 32 62 9 141 -50 166 -24 10 -75 14
-170 14 l-135 0 2 -192z m258 104 c18 -14 21 -25 17 -44 -8 -31 -30 -38 -119
-38 -64 0 -68 1 -74 25 -3 14 -3 36 0 50 6 24 10 25 80 25 57 0 79 -4 96 -18z"/>
<path d="M1902 488 l3 -193 43 -3 42 -3 0 75 0 76 78 0 c42 0 83 -4 91 -9 8
-5 16 -35 20 -72 l6 -64 44 -3 43 -3 -4 72 c-3 64 -7 75 -30 92 l-26 20 34 32
c55 52 43 124 -26 160 -22 11 -65 15 -175 15 l-145 0 2 -192z m272 106 c20
-20 20 -48 0 -68 -12 -12 -36 -16 -100 -16 l-84 0 0 43 c0 24 3 47 7 50 3 4
41 7 84 7 57 0 82 -4 93 -16z"/>
<path d="M2320 645 l0 -34 78 -3 77 -3 5 -155 5 -155 40 0 40 0 5 155 5 155
73 3 72 3 0 34 0 35 -200 0 -200 0 0 -35z"/>
<path d="M3260 485 l0 -195 168 2 167 3 3 37 3 37 -128 3 -128 3 0 40 0 40
110 5 110 5 0 30 0 30 -113 3 -113 3 3 37 3 37 123 3 122 3 0 34 0 35 -165 0
-165 0 0 -195z"/>
<path d="M3708 503 c-43 -98 -80 -186 -84 -195 -5 -16 0 -18 40 -18 45 0 47 1
62 40 l16 40 88 0 88 0 19 -37 c15 -31 24 -39 52 -41 18 -2 37 0 42 5 5 5 -26
89 -71 193 l-80 185 -48 3 -48 3 -76 -178z m150 14 c31 -74 30 -77 -28 -77
-27 0 -50 4 -50 10 0 15 44 120 51 120 3 0 15 -24 27 -53z"/>
<path d="M4082 488 l3 -193 42 -3 42 -3 3 73 3 73 75 3 c41 1 82 -2 90 -8 10
-6 17 -32 20 -72 l5 -63 44 0 45 0 -2 65 c-2 58 -6 68 -32 90 l-29 26 34 27
c29 23 35 35 35 65 0 21 -7 48 -16 60 -31 44 -63 52 -219 52 l-145 0 2 -192z
m269 112 c26 -15 26 -66 -1 -80 -11 -6 -55 -10 -98 -8 l-77 3 -3 33 c-6 58 0
62 83 62 42 0 85 -5 96 -10z"/>
</g>
</svg>
